<svg xmlns="http://www.w3.org/2000/svg" width="468.039" height="169.664" viewBox="0 0 468.039 169.664">
  <path id="TED" d="M47.205,44.159H0V.85H146.71V44.159H99.494V170.514H47.205ZM154.828.85H297.479V44.159H207.122V65.051h90.357V105.8H207.122v21.4h90.357v43.309H154.828V.85ZM306.1.85H391.9c56.352,0,76.143,41.781,76.143,84.581,0,51.968-27.418,85.083-86.3,85.083H306.1V.85ZM358.4,127.2h20.3c32.488,0,37.068-26.489,37.068-42.282,0-10.7-3.554-40.253-41.127-40.253H357.876Z" transform="translate(0 -0.85)" fill="#e62b1e"/>
</svg>
